<svg width="19" height="18" viewBox="0 0 19 18" fill="none" xmlns="http://www.w3.org/2000/svg">
<g clip-path="url(#clip0_1_66)">
<path d="M1.5 9.37501V8.62501C1.5 8.4179 1.66789 8.25001 1.875 8.25001H14.0025L10.665 4.92001C10.594 4.8496 10.5541 4.75375 10.5541 4.65376C10.5541 4.55377 10.594 4.45792 10.665 4.38751L11.1975 3.86251C11.2679 3.79152 11.3638 3.75159 11.4637 3.75159C11.5637 3.75159 11.6596 3.79152 11.73 3.86251L16.335 8.46001C16.4405 8.5654 16.4999 8.70838 16.5 8.85751V9.14251C16.4983 9.29132 16.4392 9.43372 16.335 9.54001L11.73 14.1375C11.6596 14.2085 11.5637 14.2484 11.4637 14.2484C11.3638 14.2484 11.2679 14.2085 11.1975 14.1375L10.665 13.605C10.5945 13.5359 10.5547 13.4413 10.5547 13.3425C10.5547 13.2437 10.5945 13.1491 10.665 13.08L14.0025 9.75001H1.875C1.66789 9.75001 1.5 9.58212 1.5 9.37501Z" fill="white"/>
</g>
<defs>
<clipPath id="clip0_1_66">
<rect width="18" height="18" fill="white"/>
</clipPath>
</defs>
</svg>
