<svg width="24" height="24" viewBox="0 0 24 24" fill="none" xmlns="http://www.w3.org/2000/svg">
<g clip-path="url(#clip0_1_679)">
<path d="M22 12.5V11.5C22 11.2238 21.7761 11 21.5 11H5.33L9.78 6.55997C9.87466 6.46609 9.9279 6.33829 9.9279 6.20497C9.9279 6.07166 9.87466 5.94386 9.78 5.84997L9.07 5.14997C8.97612 5.05532 8.84832 5.00208 8.715 5.00208C8.58168 5.00208 8.45388 5.05532 8.36 5.14997L2.22 11.28C2.07931 11.4205 2.00018 11.6111 2 11.81V12.19C2.0023 12.3884 2.08112 12.5783 2.22 12.72L8.36 18.85C8.45388 18.9446 8.58168 18.9979 8.715 18.9979C8.84832 18.9979 8.97612 18.9446 9.07 18.85L9.78 18.14C9.87406 18.0478 9.92707 17.9217 9.92707 17.79C9.92707 17.6583 9.87406 17.5321 9.78 17.44L5.33 13H21.5C21.7761 13 22 12.7761 22 12.5Z" fill="#377DFF"/>
</g>
<defs>
<clipPath id="clip0_1_679">
<rect width="24" height="24" fill="white" transform="matrix(-1 0 0 1 24 0)"/>
</clipPath>
</defs>
</svg>
