<svg width="24" height="24" viewBox="0 0 24 24" fill="none" xmlns="http://www.w3.org/2000/svg">
<g clip-path="url(#clip0_1_502)">
<path d="M3.50154 14.2399V18.3399C3.49657 18.4132 3.49657 18.4867 3.50154 18.5599L2.87331 17.9399C2.26615 17.2823 1.95282 16.4046 2.00577 15.5099V11.4099C2.00577 9.50994 3.3719 8.20994 3.73089 6.16994L4.17962 3.57994C4.23008 3.3099 4.48835 3.13128 4.75798 3.17994C5.35309 3.26419 5.84012 3.69745 5.99448 4.27994C6.02457 4.41494 6.02457 4.55494 5.99448 4.68994L4.99731 10.5399C4.05334 11.5413 3.51942 12.8621 3.50154 14.2399ZM14.9691 2.70994C15.3601 2.31782 15.3601 1.68206 14.9691 1.28994C14.5781 0.897819 13.9441 0.897819 13.5531 1.28994L9.56439 5.28994C10.0927 5.78274 10.4256 6.45042 10.5017 7.16994L14.9691 2.70994ZM20.294 13.0899L18.2997 15.0899C18.1058 15.2805 17.7955 15.2805 17.6017 15.0899C17.5073 14.9961 17.4542 14.8683 17.4542 14.7349C17.4542 14.6016 17.5073 14.4738 17.6017 14.3799L21.71 10.2599C22.0967 9.8699 22.0967 9.23998 21.71 8.84994C21.5228 8.66063 21.2679 8.55414 21.002 8.55414C20.7361 8.55414 20.4813 8.66063 20.294 8.84994L16.1358 12.9999C15.9419 13.1905 15.6316 13.1905 15.4378 12.9999C15.3434 12.9061 15.2903 12.7783 15.2903 12.6449C15.2903 12.5116 15.3434 12.3838 15.4378 12.2899L20.7328 6.99994C21.1194 6.6099 21.1194 5.97998 20.7328 5.58994C20.5456 5.40063 20.2907 5.29414 20.0248 5.29414C19.7589 5.29414 19.504 5.40063 19.3168 5.58994L14.0218 10.8999C13.8263 11.096 13.5093 11.096 13.3138 10.8999C13.1183 10.7039 13.1183 10.386 13.3138 10.1899L17.9606 5.53994C18.2136 5.28628 18.3124 4.91657 18.2198 4.57006C18.1272 4.22356 17.8573 3.95291 17.5118 3.86006C17.1663 3.76722 16.7976 3.86628 16.5446 4.11994L8.98602 11.6599V7.44994C8.97692 6.73065 8.45668 6.12058 7.74952 5.99994C7.47989 5.95128 7.22162 6.1299 7.17116 6.39994L6.72243 8.99994C6.36344 10.9999 4.99731 12.3399 4.99731 14.2399V18.3399C4.94704 19.2361 5.26403 20.1139 5.87482 20.7699L7.23099 22.1199C7.79147 22.6827 8.55187 22.9992 9.34501 22.9999H9.39487C10.4096 22.9982 11.4075 22.7403 12.2967 22.2499L15.3779 20.5299C15.7837 20.3023 16.1561 20.0196 16.4848 19.6899L21.6602 14.5099C22.0512 14.1178 22.0512 13.4821 21.6602 13.0899C21.2692 12.6978 20.6352 12.6978 20.2442 13.0899H20.294Z" fill="#8C98A4"/>
</g>
<defs>
<clipPath id="clip0_1_502">
<rect width="24" height="24" fill="white"/>
</clipPath>
</defs>
</svg>
