<svg width="24" height="24" viewBox="0 0 24 24" fill="none" xmlns="http://www.w3.org/2000/svg">
<g clip-path="url(#clip0_1_60)">
<path d="M20 4H4C2.89543 4 2 4.89543 2 6V18C2 19.1046 2.89543 20 4 20H20C21.1046 20 22 19.1046 22 18V6C22 4.89543 21.1046 4 20 4ZM20 6V9H4V6H20ZM4 18V12H20V18H4ZM9.5 14H6.5C6.22386 14 6 14.2239 6 14.5V15.5C6 15.7761 6.22386 16 6.5 16H9.5C9.77614 16 10 15.7761 10 15.5V14.5C10 14.2239 9.77614 14 9.5 14Z" fill="#377DFF"/>
</g>
<defs>
<clipPath id="clip0_1_60">
<rect width="24" height="24" fill="white"/>
</clipPath>
</defs>
</svg>
