<svg width="342" height="130" viewBox="0 0 342 130" fill="none" xmlns="http://www.w3.org/2000/svg">
<g clip-path="url(#clip0_1_225)">
<g clip-path="url(#clip1_1_225)">
<path d="M341 0H0V151.343H341V0Z" fill="#E7EAF3"/>
<path d="M226.765 109.005L197.212 72.1147C196.492 71.131 195.355 70.5256 194.105 70.5256H192.438C191.187 70.5635 190.013 71.131 189.293 72.1147L179.821 83.9951L160.194 56.6021C159.436 55.5427 158.186 54.9373 156.898 55.013H155.307C154.056 55.013 152.882 55.6184 152.162 56.6021L114.387 109.005C113.553 110.291 113.553 111.918 114.387 113.204L115.485 115.058C116.167 116.269 117.456 117.026 118.857 117.026H222.37C223.772 117.026 225.06 116.269 225.742 115.058L226.841 113.204C227.599 111.918 227.636 110.291 226.765 109.005ZM128.822 106.697L156.14 68.823L167.924 106.697H128.822ZM201.645 55.013C207.366 55.013 211.988 50.3971 211.988 44.6839C211.988 38.9707 207.366 34.3547 201.645 34.3547C195.923 34.3547 191.301 38.9707 191.301 44.6839C191.301 50.3971 195.923 55.013 201.645 55.013Z" fill="#BDC5D1"/>
</g>
</g>
<defs>
<clipPath id="clip0_1_225">
<path d="M0.164062 12C0.164062 5.37259 5.53665 0 12.1641 0H329.164C335.791 0 341.164 5.37258 341.164 12V129.328H0.164062V12Z" fill="white"/>
</clipPath>
<clipPath id="clip1_1_225">
<rect width="341" height="151.343" fill="white"/>
</clipPath>
</defs>
</svg>
