<svg width="17" height="17" viewBox="0 0 17 17" fill="none" xmlns="http://www.w3.org/2000/svg">
<g clip-path="url(#clip0_1_252)">
<path d="M14.4455 6.25C14.4455 4.2566 12.8295 2.64062 10.8361 2.64062C9.7086 2.67576 8.64333 3.16578 7.88298 3.99906C7.12263 3.16578 6.05736 2.67576 4.92986 2.64062C2.93645 2.64062 1.32048 4.2566 1.32048 6.25C1.32048 8.8225 4.43767 11.6641 5.91423 13.1406L7.41048 14.6369C7.50269 14.7292 7.6278 14.7811 7.75829 14.7812H8.00767C8.13816 14.7811 8.26327 14.7292 8.35548 14.6369L9.85173 13.1406C11.3283 11.6641 14.4455 8.8225 14.4455 6.25Z" fill="#333333"/>
</g>
<defs>
<clipPath id="clip0_1_252">
<rect width="15.75" height="15.75" fill="white" transform="translate(0.00798035 0.671875)"/>
</clipPath>
</defs>
</svg>
