<svg width="12" height="14" viewBox="0 0 12 14" fill="none" xmlns="http://www.w3.org/2000/svg">
<path d="M5.875 0.3125C2.9755 0.3125 0.625 2.663 0.625 5.5625C0.625 9.64437 3.93906 9.61156 4.73313 11.9806L5.06781 12.9913C5.16165 13.2704 5.42996 13.4529 5.72406 13.4375H6.09156C6.38566 13.4529 6.65397 13.2704 6.74781 12.9913L7.0825 11.9806C7.84375 9.61156 11.125 9.64437 11.125 5.5625C11.125 2.663 8.7745 0.3125 5.875 0.3125ZM5.875 7.53125C4.78769 7.53125 3.90625 6.64981 3.90625 5.5625C3.90625 4.47519 4.78769 3.59375 5.875 3.59375C6.96231 3.59375 7.84375 4.47519 7.84375 5.5625C7.84375 6.08464 7.63633 6.5854 7.26712 6.95462C6.8979 7.32383 6.39714 7.53125 5.875 7.53125Z" fill="#333333"/>
</svg>
