<svg width="25" height="25" viewBox="0 0 25 25" fill="none" xmlns="http://www.w3.org/2000/svg">
<g clip-path="url(#clip0_1_76)">
<path d="M16.5098 3H8.50977C5.74834 3 3.50977 5.23858 3.50977 8V16C3.50977 18.7614 5.74834 21 8.50977 21H16.5098C19.2712 21 21.5098 18.7614 21.5098 16V8C21.5098 5.23858 19.2712 3 16.5098 3ZM19.7598 16C19.7543 17.7926 18.3024 19.2445 16.5098 19.25H8.50977C6.71712 19.2445 5.26526 17.7926 5.25977 16V8C5.26526 6.20735 6.71712 4.75549 8.50977 4.75H16.5098C18.3024 4.75549 19.7543 6.20735 19.7598 8V16ZM18.2598 7.25C18.2598 7.80228 17.812 8.25 17.2598 8.25C16.7075 8.25 16.2598 7.80228 16.2598 7.25C16.2598 6.69772 16.7075 6.25 17.2598 6.25C17.812 6.25 18.2598 6.69772 18.2598 7.25ZM12.5098 7.5C10.0245 7.5 8.00977 9.51472 8.00977 12C8.00977 14.4853 10.0245 16.5 12.5098 16.5C14.995 16.5 17.0098 14.4853 17.0098 12C17.0124 10.8057 16.5392 9.65957 15.6947 8.81508C14.8502 7.97059 13.7041 7.49734 12.5098 7.5ZM12.5098 14.75C10.991 14.75 9.75977 13.5188 9.75977 12C9.75977 10.4812 10.991 9.25 12.5098 9.25C14.0285 9.25 15.2598 10.4812 15.2598 12C15.2598 13.5188 14.0285 14.75 12.5098 14.75Z" fill="white"/>
</g>
<defs>
<clipPath id="clip0_1_76">
<rect width="24" height="24" fill="white" transform="translate(0.509766)"/>
</clipPath>
</defs>
</svg>
