<svg width="24" height="24" viewBox="0 0 24 24" fill="none" xmlns="http://www.w3.org/2000/svg">
<g clip-path="url(#clip0_1_94)">
<path d="M16 1H8C6.34315 1 5 2.34315 5 4V20C5 21.6569 6.34315 23 8 23H16C17.6569 23 19 21.6569 19 20V4C19 2.34315 17.6569 1 16 1ZM16 21H8C7.44772 21 7 20.5523 7 20V4C7 3.44772 7.44772 3 8 3C8.55228 3 9 3.44772 9 4C9 4.55228 9.44772 5 10 5H14C14.5523 5 15 4.55228 15 4C15 3.44772 15.4477 3 16 3C16.5523 3 17 3.44772 17 4V20C17 20.5523 16.5523 21 16 21Z" fill="white"/>
</g>
<defs>
<clipPath id="clip0_1_94">
<rect width="24" height="24" fill="white"/>
</clipPath>
</defs>
</svg>
