<svg width="47" height="35" viewBox="0 0 47 35" fill="none" xmlns="http://www.w3.org/2000/svg">
<g clip-path="url(#clip0_1_541)">
<path d="M29.6267 28.8375H17.0295V6.1626H29.6267V28.8375Z" fill="#FF5F00"/>
<path d="M17.8227 17.5C17.8227 12.9044 19.9689 8.79864 23.3281 6.16256C20.7854 4.15635 17.6594 3.08325 14.4168 3.08325C6.46189 3.08325 0 9.54514 0 17.5C0 25.4549 6.46189 31.9168 14.4168 31.9168C17.6594 31.9168 20.7854 30.8437 23.3281 28.8375C19.9689 26.2014 17.8227 22.0957 17.8227 17.5Z" fill="#EB001B"/>
<path d="M46.6562 17.5C46.6562 25.4549 40.1944 31.9168 32.2395 31.9168C28.9969 31.9168 25.8709 30.8437 23.3281 28.8375C26.6874 26.2014 28.8336 22.0957 28.8336 17.5C28.8336 12.9044 26.6874 8.79864 23.3281 6.16256C25.8709 4.15635 28.9969 3.08325 32.2395 3.08325C40.1944 3.08325 46.6562 9.54514 46.6562 17.5Z" fill="#F79E1B"/>
</g>
<defs>
<clipPath id="clip0_1_541">
<rect width="46.6562" height="28.8336" fill="white" transform="translate(0 3.08325)"/>
</clipPath>
</defs>
</svg>
