<svg width="24" height="24" viewBox="0 0 24 24" fill="none" xmlns="http://www.w3.org/2000/svg">
<g clip-path="url(#clip0_1_490)">
<path d="M10 20H14C14 21.1046 13.1046 22 12 22C10.8954 22 10 21.1046 10 20ZM18.88 14.88C18.3172 14.3179 18.0007 13.5554 18 12.76V10C18 8.70178 17.5789 7.43858 16.8 6.4L15.9 5.2C15.3334 4.44458 14.4443 4 13.5 4H13V2.5C13 2.22386 12.7761 2 12.5 2H11.5C11.2239 2 11 2.22386 11 2.5V4H10.5C9.55573 4 8.66657 4.44458 8.1 5.2L7.2 6.4C6.42107 7.43858 6 8.70178 6 10V12.76C5.9993 13.5554 5.68277 14.3179 5.12 14.88L4.29 15.71C4.10526 15.8963 4.00111 16.1477 4 16.41V17C4 17.5523 4.44772 18 5 18H19C19.5523 18 20 17.5523 20 17V16.41C19.9989 16.1477 19.8947 15.8963 19.71 15.71L18.88 14.88ZM5.59 5.21C5.7093 5.05475 5.68264 4.83262 5.53 4.71L4.53 3.93C4.44639 3.86047 4.33808 3.82797 4.23 3.84C4.13533 3.86112 4.05273 3.91858 4 4C2.80804 5.58596 2.11215 7.48923 2 9.47C1.98996 9.60792 2.04118 9.74327 2.14 9.84C2.23158 9.94239 2.36264 10.0006 2.5 10H3.5C3.76649 9.99523 3.98437 9.78607 4 9.52C4.10408 7.96023 4.65618 6.46367 5.59 5.21ZM20 4C19.9373 3.91026 19.8389 3.85194 19.73 3.84C19.619 3.82964 19.5082 3.86181 19.42 3.93L18.42 4.71C18.2674 4.83262 18.2407 5.05475 18.36 5.21C19.3117 6.45798 19.8813 7.95503 20 9.52C20.0105 9.78447 20.2254 9.99492 20.49 10H21.49C21.6268 9.99818 21.757 9.94035 21.85 9.84C21.9446 9.73981 21.9981 9.60777 22 9.47C21.8832 7.4902 21.1878 5.58824 20 4Z" fill="#8C98A4"/>
</g>
<defs>
<clipPath id="clip0_1_490">
<rect width="24" height="24" fill="white"/>
</clipPath>
</defs>
</svg>
