<svg width="55" height="55" viewBox="0 0 55 55" fill="none" xmlns="http://www.w3.org/2000/svg">
<path d="M27.9952 1.5C34.2266 1.49873 40.2034 3.97244 44.6112 8.37714C49.019 12.7818 51.4969 18.7569 51.5 24.9883C51.5031 31.2196 49.0312 37.1971 44.6278 41.6062C40.2244 46.0153 34.2501 48.495 28.0187 48.5C21.7873 48.505 15.8091 46.0348 11.3987 41.6327C6.98828 37.2306 4.50682 31.2571 4.50001 25.0257C4.49321 18.7943 6.9616 12.8153 11.3624 8.40362C15.7632 3.99191 21.736 1.50868 27.9674 1.50002L27.9952 1.5Z" stroke="#E7EAF3" stroke-width="3"/>
<path d="M27.9952 1.5C31.329 1.49932 34.6249 2.20799 37.6638 3.57894C40.7027 4.94989 43.4151 6.95174 45.6209 9.45153C47.8267 11.9513 49.4753 14.8918 50.4573 18.0777C51.4394 21.2636 51.7323 24.622 51.3166 27.9299C50.901 31.2377 49.7863 34.4192 48.0466 37.2631C46.3069 40.107 43.982 42.5482 41.2263 44.4246C38.4707 46.3009 35.3473 47.5695 32.0637 48.146C28.7801 48.7225 25.4114 48.5937 22.1814 47.7683" stroke="#377DFF" stroke-width="3" stroke-linecap="round"/>
<path d="M18.1469 24.3887C18.8259 24.3887 19.4161 24.5049 19.9174 24.7373C20.4187 24.9652 20.8061 25.2979 21.0795 25.7354C21.3575 26.1729 21.4965 26.7038 21.4965 27.3281C21.4965 28.0117 21.3484 28.6019 21.0521 29.0986C20.7559 29.5908 20.3298 29.9714 19.7738 30.2402C19.2178 30.5046 18.5525 30.6367 17.7777 30.6367C17.2582 30.6367 16.7751 30.5911 16.3285 30.5C15.8819 30.4089 15.5059 30.2721 15.2006 30.0898V29.0098C15.5333 29.2103 15.9366 29.3698 16.4105 29.4883C16.8845 29.6068 17.3448 29.666 17.7914 29.666C18.2973 29.666 18.7393 29.5863 19.1176 29.4268C19.5004 29.2627 19.7966 29.0166 20.0063 28.6885C20.2204 28.3558 20.3275 27.9388 20.3275 27.4375C20.3275 26.7721 20.1225 26.2594 19.7123 25.8994C19.3067 25.5348 18.6641 25.3525 17.7846 25.3525C17.502 25.3525 17.1921 25.3753 16.8549 25.4209C16.5176 25.4665 16.2396 25.5166 16.0209 25.5713L15.4467 25.1953L15.8295 20.5059H20.7992V21.5449H16.8002L16.5473 24.5596C16.7204 24.5231 16.9438 24.4867 17.2172 24.4502C17.4906 24.4092 17.8005 24.3887 18.1469 24.3887ZM30.0482 28.1826H28.5512V30.5H27.4438V28.1826H22.6107V27.2256L27.3686 20.4512H28.5512V27.1572H30.0482V28.1826ZM27.4438 27.1572V23.8896C27.4438 23.639 27.446 23.4134 27.4506 23.2129C27.4551 23.0078 27.462 22.8187 27.4711 22.6455C27.4802 22.4678 27.487 22.2992 27.4916 22.1396C27.5007 21.9801 27.5076 21.8229 27.5121 21.668H27.4574C27.3708 21.8503 27.2706 22.0439 27.1566 22.249C27.0473 22.4495 26.9356 22.6296 26.8217 22.7891L23.7387 27.1572H27.4438ZM33.0492 20.3623C33.7328 20.3623 34.2501 20.6357 34.601 21.1826C34.9564 21.7249 35.1342 22.4928 35.1342 23.4863C35.1342 24.4798 34.9633 25.2546 34.6215 25.8105C34.2797 26.362 33.7556 26.6377 33.0492 26.6377C32.393 26.6377 31.8894 26.362 31.5385 25.8105C31.1921 25.2546 31.0189 24.4798 31.0189 23.4863C31.0189 22.4928 31.1853 21.7249 31.518 21.1826C31.8507 20.6357 32.3611 20.3623 33.0492 20.3623ZM33.0492 21.1758C32.6801 21.1758 32.4089 21.3695 32.2357 21.7568C32.0626 22.1396 31.976 22.7161 31.976 23.4863C31.976 24.2565 32.0626 24.8376 32.2357 25.2295C32.4089 25.6214 32.6801 25.8174 33.0492 25.8174C33.432 25.8174 33.7169 25.6214 33.9037 25.2295C34.0906 24.8376 34.184 24.2565 34.184 23.4863C34.184 22.7207 34.0906 22.1442 33.9037 21.7568C33.7214 21.3695 33.4366 21.1758 33.0492 21.1758ZM39.3793 20.5059L33.8354 30.5H32.8373L38.3813 20.5059H39.3793ZM39.1127 24.3682C39.7917 24.3682 40.309 24.6416 40.6645 25.1885C41.0199 25.7308 41.1977 26.4987 41.1977 27.4922C41.1977 28.4811 41.0268 29.2536 40.685 29.8096C40.3432 30.361 39.8191 30.6367 39.1127 30.6367C38.4519 30.6367 37.9483 30.361 37.602 29.8096C37.2556 29.2536 37.0824 28.4811 37.0824 27.4922C37.0824 26.4987 37.2465 25.7308 37.5746 25.1885C37.9073 24.6416 38.42 24.3682 39.1127 24.3682ZM39.1127 25.1885C38.7436 25.1885 38.4724 25.3799 38.2992 25.7627C38.126 26.1455 38.0395 26.722 38.0395 27.4922C38.0395 28.2624 38.126 28.8434 38.2992 29.2354C38.4724 29.6227 38.7436 29.8164 39.1127 29.8164C39.4955 29.8164 39.7803 29.625 39.9672 29.2422C40.154 28.8548 40.2475 28.2715 40.2475 27.4922C40.2475 26.7266 40.154 26.1523 39.9672 25.7695C39.7849 25.3822 39.5001 25.1885 39.1127 25.1885Z" fill="white"/>
</svg>
