<svg width="35" height="29" viewBox="0 0 35 29" fill="none" xmlns="http://www.w3.org/2000/svg">
<g clip-path="url(#clip0_1_696)">
<path d="M5.44743 20.437V8.11096H3.36194V17.6198C4.2338 18.1946 4.93826 19.3158 5.44743 20.437Z" fill="#BDC5D1"/>
<path d="M3.36194 24.6024V25.681H3.9827C3.73858 25.3404 3.52934 24.9785 3.36194 24.6024Z" fill="#BDC5D1"/>
<path d="M5.41943 8.11096V20.3873C5.9007 21.4305 6.21457 22.4736 6.34012 23.0626C6.54239 24.0276 7.21198 24.6592 7.21198 25.6385C7.21198 25.6527 7.21198 25.6669 7.21198 25.6811H14.3891V8.11096H5.41943Z" fill="#E7EAF3"/>
<path d="M3.51539 9.13281H2.50403V17.2508" stroke="#E7EAF3" stroke-width="0.828963" stroke-miterlimit="10"/>
<path d="M18.895 3.34937V14.8239H19.2228" stroke="#E7EAF3" stroke-width="0.828963" stroke-miterlimit="10"/>
<path d="M29.5666 27.4054L27.4323 23.7509" stroke="#1E2022" stroke-width="0.828963" stroke-linecap="round" stroke-linejoin="round"/>
<path d="M30.5291 27.4054L28.4017 23.7579" stroke="#1E2022" stroke-width="0.828963" stroke-linecap="round" stroke-linejoin="round"/>
<path d="M23.61 27.1215L25.5769 23.7579" stroke="#1E2022" stroke-width="0.828963" stroke-linecap="round" stroke-linejoin="round"/>
<path d="M28.7923 15.5974H31.8264L29.6223 23.7296H24.0284V23.4387H28.1785L28.2692 21.544" stroke="#1E2022" stroke-width="0.518102" stroke-linecap="round" stroke-linejoin="round"/>
<path d="M19.8994 26.8873L19.467 27.6253L17.8837 26.6603L19.3275 26.9086L19.5018 26.6177" stroke="#1E2022" stroke-width="0.518102" stroke-linecap="round" stroke-linejoin="round"/>
<path d="M22.0755 20.9266C21.6152 20.9266 19.3204 26.3623 19.3204 26.561C19.3204 26.7597 19.8157 26.9868 19.8924 26.9868C20.004 26.8803 22.2011 23.6516 22.4312 23.4245C22.6614 23.1974 22.0755 20.9266 22.0755 20.9266Z" fill="black"/>
<path d="M23.3589 18.223C23.2194 18.1094 23.045 18.0456 22.8637 18.0527C22.501 18.0527 22.201 18.2797 22.201 18.5636" stroke="#1E2022" stroke-width="0.518102" stroke-linecap="round" stroke-linejoin="round"/>
<path d="M25.4514 17.1443C25.2212 17.3572 24.9143 17.7262 24.7678 18.1519" stroke="#1E2022" stroke-width="0.518102" stroke-linecap="round" stroke-linejoin="round"/>
<path d="M26.6929 15.9309C26.6161 15.8954 26.5255 15.8741 26.4418 15.8741C25.9745 15.8741 25.1793 16.7399 25.1793 16.8534C25.1793 16.9457 25.6048 17.3218 26.0093 17.4424" stroke="#1E2022" stroke-width="0.518102" stroke-linecap="round" stroke-linejoin="round"/>
<path d="M25.8978 18.2939C25.9815 17.0166 26.3721 15.796 27.4253 15.4696" stroke="#1E2022" stroke-width="0.518102" stroke-linecap="round" stroke-linejoin="round"/>
<path d="M29.7897 17.2295C30.264 19.0461 29.9432 21.5652 29.727 21.7285C29.3922 21.9839 26.4488 22.0123 26.2535 21.7497C26.1698 21.6433 25.9117 20.4937 25.8768 19.2022" stroke="#1E2022" stroke-width="0.518102" stroke-linecap="round" stroke-linejoin="round"/>
<path d="M28.4855 15.4554C28.89 15.5832 29.2039 15.8954 29.4271 16.2999" stroke="#1E2022" stroke-width="0.518102" stroke-linecap="round" stroke-linejoin="round"/>
<path d="M27.9553 15.8315C28.2204 15.8315 28.4854 15.7747 28.4854 15.6612V14.5045" stroke="#1E2022" stroke-width="0.518102" stroke-linecap="round" stroke-linejoin="round"/>
<path d="M27.4253 15.0509V15.4696" stroke="#1E2022" stroke-width="0.518102" stroke-linecap="round" stroke-linejoin="round"/>
<path d="M27.8577 15.0368C27.7461 15.0723 27.6275 15.0865 27.516 15.0652C26.944 14.973 26.5953 14.1995 26.7278 13.3337C26.7348 13.2983 26.7417 13.2628 26.7487 13.2273" stroke="#1E2022" stroke-width="0.518102" stroke-linecap="round" stroke-linejoin="round"/>
<path d="M28.7087 14.0149C28.6529 14.1852 28.5831 14.3555 28.4855 14.5045" stroke="#1E2022" stroke-width="0.518102" stroke-linecap="round" stroke-linejoin="round"/>
<path d="M28.9528 11.886C29.1062 11.6164 29.4898 11.1693 30.2431 11.1693C30.7523 11.1693 31.2684 11.4461 31.9171 11.4461C32.4263 11.4461 32.9075 11.2403 33.5213 11.2403C34.6164 11.2403 34.9581 11.9712 34.9581 12.4253C34.9581 13.5749 34.0375 14.022 33.3539 14.022C32.2589 14.022 32.1263 13.2556 30.822 13.2556C29.5596 13.2556 29.727 12.2124 29.4549 12.2124C29.3922 12.2124 29.3224 12.2195 29.2597 12.2337" stroke="#1E2022" stroke-width="0.518102" stroke-miterlimit="10"/>
<path d="M28.6319 14.3342C29.1899 14.3342 29.4549 13.7523 29.4549 13.0143C29.4549 11.8009 28.4017 11.5525 27.9484 11.5525C26.7417 11.5525 26.4836 12.4892 26.4836 12.7588C26.4836 13.0285 26.651 13.2272 26.7347 13.2343C26.7905 12.9079 27.0416 12.4679 27.0556 12.4537C27.1672 12.5672 27.2997 12.6524 27.4462 12.7163" stroke="#1E2022" stroke-width="0.518102" stroke-linecap="round" stroke-linejoin="round"/>
<path d="M28.5762 13.4401C28.618 13.4188 28.6529 13.4117 28.7017 13.4117C28.8621 13.4117 28.9947 13.5466 28.9947 13.7098C28.9947 13.873 28.8621 14.0078 28.7017 14.0078C28.6738 14.0078 28.6389 14.0007 28.611 13.9936" stroke="#1E2022" stroke-width="0.518102" stroke-linecap="round" stroke-linejoin="round"/>
<path d="M25.8838 19.2022C26.2325 19.3441 26.5604 19.4577 26.9719 19.4577C27.2927 19.4577 27.9065 19.2519 28.3669 18.748" stroke="#1E2022" stroke-width="0.518102" stroke-linecap="round" stroke-linejoin="round"/>
<path d="M27.4322 17.79C27.1881 17.9745 26.9788 18.2087 26.8254 18.4784C26.5464 18.4216 25.3955 18.1307 24.3772 18.1307C24.2796 18.1307 24.0354 18.0526 23.9308 18.0526C23.331 18.0526 23.2124 18.379 23.2124 18.4784C23.2124 18.5777 23.2333 18.5777 23.2543 18.5777C24.5725 18.5777 25.256 18.9396 25.8838 19.2022" stroke="#1E2022" stroke-width="0.518102" stroke-linecap="round" stroke-linejoin="round"/>
<path d="M28.883 16.3496C29.2178 16.2502 29.5317 16.2502 29.727 16.4418C30.3687 17.0734 28.7505 18.8261 28.4855 18.7978C28.2274 18.7694 27.2928 17.7688 27.2788 17.4637C27.2788 17.3572 27.4881 17.1302 27.795 16.9102" stroke="#1E2022" stroke-width="0.518102" stroke-linecap="round" stroke-linejoin="round"/>
<path d="M31.0453 18.6558H16.5793V19.1312H31.0453V18.6558Z" fill="black"/>
<path d="M30.264 26.2132V19.0035" stroke="#1E2022" stroke-width="0.828963" stroke-linecap="round" stroke-linejoin="round"/>
<path d="M18.2463 26.2132V19.0035" stroke="#1E2022" stroke-width="0.828963" stroke-linecap="round" stroke-linejoin="round"/>
<path d="M29.2457 27.6609V19.0035" stroke="#1E2022" stroke-width="0.828963" stroke-linecap="round" stroke-linejoin="round"/>
<path d="M17.1722 27.6609V19.0035" stroke="#1E2022" stroke-width="0.828963" stroke-linecap="round" stroke-linejoin="round"/>
<path d="M24.3494 27.5544L26.5674 23.7579" stroke="#1E2022" stroke-width="0.828963" stroke-linecap="round" stroke-linejoin="round"/>
<path d="M24.2866 18.5707H21.8872V18.6558H24.2866V18.5707Z" fill="black"/>
<path d="M20.9037 16.754H19.2228V12.8866H24.4679V16.754H22.1592" stroke="#1E2022" stroke-width="0.518102" stroke-linecap="round" stroke-linejoin="round"/>
<path d="M21.106 16.0303L20.3806 18.6559H21.65L22.3545 16.0303H21.106Z" stroke="#1E2022" stroke-width="0.518102" stroke-linecap="round" stroke-linejoin="round"/>
<path d="M22.1313 3.54098C22.7381 2.93781 22.7451 1.95854 22.1522 1.34117C21.7267 0.894113 21.0781 0.75219 20.5061 0.979267C19.8644 -0.0212918 18.5532 -0.298042 17.5767 0.354805C17.221 0.588978 16.9489 0.922498 16.7815 1.31988C16.0004 1.00056 15.1076 1.38375 14.7937 2.17852C14.6193 2.62558 14.6542 3.1294 14.8913 3.54808L22.1313 3.54098Z" fill="#E7EAF3"/>
<path d="M18.3649 3.24292V5.74077H10.839V8.11089" stroke="#E7EAF3" stroke-width="0.828963" stroke-miterlimit="10"/>
<path d="M6.62618 27.6609C6.82845 27.6609 7.21904 26.9726 7.21904 25.6385C7.21904 24.6592 6.54248 24.0276 6.34718 23.0626C6.04029 21.5795 4.51976 17.2153 2.14132 17.2153C1.8693 17.2153 1.49963 17.7972 1.49963 19.0036C1.49963 20.4654 2.88764 21.9769 2.88764 22.2891C2.88066 25.8656 5.98449 27.6609 6.62618 27.6609Z" stroke="#1E2022" stroke-width="0.518102" stroke-linecap="round" stroke-linejoin="round"/>
<path d="M6.64006 27.6608C6.64006 27.4621 6.36106 26.1493 6.21459 25.8229C6.06812 25.4965 5.50315 23.8502 5.41248 23.4031C5.3218 22.9561 3.6827 18.521 2.13428 17.4069" stroke="#1E2022" stroke-width="0.518102" stroke-linecap="round" stroke-linejoin="round"/>
<path d="M5.92864 25.0494L3.33398 24.5172" stroke="#1E2022" stroke-width="0.518102" stroke-linecap="round" stroke-linejoin="round"/>
<path d="M6.06118 25.4184L3.68274 25.2197" stroke="#1E2022" stroke-width="0.518102" stroke-linecap="round" stroke-linejoin="round"/>
<path d="M5.31492 23.0625L2.90161 22.3174" stroke="#1E2022" stroke-width="0.518102" stroke-linecap="round" stroke-linejoin="round"/>
<path d="M5.54504 23.8715L6.27741 23.3322" stroke="#1E2022" stroke-width="0.518102" stroke-linecap="round" stroke-linejoin="round"/>
<path d="M4.15002 20.295L4.87541 19.4576" stroke="#1E2022" stroke-width="0.518102" stroke-linecap="round" stroke-linejoin="round"/>
<path d="M3.91992 19.848L4.54069 18.9965" stroke="#1E2022" stroke-width="0.518102" stroke-linecap="round" stroke-linejoin="round"/>
<path d="M13.6498 9.2179H6.16577V10.6868H13.6498V9.2179Z" fill="#377DFF"/>
<path d="M13.1058 10.0269C13.2445 10.0269 13.3569 9.91254 13.3569 9.77145C13.3569 9.63036 13.2445 9.51599 13.1058 9.51599C12.9672 9.51599 12.8547 9.63036 12.8547 9.77145C12.8547 9.91254 12.9672 10.0269 13.1058 10.0269Z" fill="white"/>
<path d="M8.74646 9.77136H12.6454" stroke="white" stroke-width="0.828963" stroke-linecap="round" stroke-linejoin="round"/>
<path d="M13.6498 11.7015H6.16577V13.1704H13.6498V11.7015Z" fill="#377DFF"/>
<path d="M13.1058 12.5035C13.2445 12.5035 13.3569 12.3891 13.3569 12.248C13.3569 12.1069 13.2445 11.9926 13.1058 11.9926C12.9672 11.9926 12.8547 12.1069 12.8547 12.248C12.8547 12.3891 12.9672 12.5035 13.1058 12.5035Z" fill="white"/>
<path d="M8.74646 12.2479H12.6454" stroke="white" stroke-width="0.828963" stroke-linecap="round" stroke-linejoin="round"/>
<path d="M13.6498 14.1781H6.16577V15.647H13.6498V14.1781Z" fill="#377DFF"/>
<path d="M13.1058 14.9871C13.2445 14.9871 13.3569 14.8727 13.3569 14.7317C13.3569 14.5906 13.2445 14.4762 13.1058 14.4762C12.9672 14.4762 12.8547 14.5906 12.8547 14.7317C12.8547 14.8727 12.9672 14.9871 13.1058 14.9871Z" fill="white"/>
<path d="M8.74646 14.7317H12.6454" stroke="white" stroke-width="0.828963" stroke-linecap="round" stroke-linejoin="round"/>
<path d="M13.6498 16.6617H6.16577V18.1306H13.6498V16.6617Z" fill="#377DFF"/>
<path d="M13.1058 17.4637C13.2445 17.4637 13.3569 17.3493 13.3569 17.2082C13.3569 17.0671 13.2445 16.9528 13.1058 16.9528C12.9672 16.9528 12.8547 17.0671 12.8547 17.2082C12.8547 17.3493 12.9672 17.4637 13.1058 17.4637Z" fill="white"/>
<path d="M8.74646 17.2081H12.6454" stroke="white" stroke-width="0.828963" stroke-linecap="round" stroke-linejoin="round"/>
<path d="M13.6498 19.1383H6.16577V20.6072H13.6498V19.1383Z" fill="#377DFF"/>
<path d="M13.1058 19.9473C13.2445 19.9473 13.3569 19.833 13.3569 19.6919C13.3569 19.5508 13.2445 19.4364 13.1058 19.4364C12.9672 19.4364 12.8547 19.5508 12.8547 19.6919C12.8547 19.833 12.9672 19.9473 13.1058 19.9473Z" fill="white"/>
<path d="M8.74646 19.6919H12.6454" stroke="white" stroke-width="0.828963" stroke-linecap="round" stroke-linejoin="round"/>
<path d="M3.84314 10.2753H4.9661" stroke="white" stroke-width="0.414481" stroke-linecap="round" stroke-linejoin="round"/>
<path d="M3.84314 10.5732H4.9661" stroke="white" stroke-width="0.414481" stroke-linecap="round" stroke-linejoin="round"/>
<path d="M3.84314 12.2834H4.9661" stroke="white" stroke-width="0.414481" stroke-linecap="round" stroke-linejoin="round"/>
<path d="M3.84314 12.5815H4.9661" stroke="white" stroke-width="0.414481" stroke-linecap="round" stroke-linejoin="round"/>
<path d="M3.84314 14.7317H4.9661" stroke="white" stroke-width="0.414481" stroke-linecap="round" stroke-linejoin="round"/>
<path d="M3.84314 15.0226H4.9661" stroke="white" stroke-width="0.414481" stroke-linecap="round" stroke-linejoin="round"/>
<path d="M3.84314 17.0946H4.9661" stroke="white" stroke-width="0.414481" stroke-linecap="round" stroke-linejoin="round"/>
<path d="M3.84314 17.3927H4.9661" stroke="white" stroke-width="0.414481" stroke-linecap="round" stroke-linejoin="round"/>
<path d="M26.9719 12.3047C26.9928 12.3615 27.0207 12.4111 27.0626 12.4537" stroke="#1E2022" stroke-width="0.518102" stroke-linecap="round" stroke-linejoin="round"/>
<path d="M23.6519 27.3416L23.8053 28.186L22.0267 28.5337L23.2404 27.7389L23.1846 27.4054" stroke="#1E2022" stroke-width="0.518102" stroke-linecap="round" stroke-linejoin="round"/>
<path d="M29.727 22.0335C29.727 21.8845 29.7549 21.7142 29.6642 21.6716C27.488 20.7562 24.3075 20.6427 23.8192 20.6427C23.331 20.6427 21.8942 20.6924 21.8942 21.111C21.8942 22.6225 22.7172 27.2634 22.8846 27.4337C22.9613 27.5189 23.6588 27.4621 23.7425 27.3699C23.7355 26.9867 23.9518 23.1476 23.7565 22.6793C25.5839 23.3605 27.6554 23.6799 28.2064 23.6799C29.7897 23.687 29.727 22.211 29.727 22.0335Z" fill="black"/>
<path opacity="0.05" d="M29.727 22.0335C29.727 21.8845 29.7549 21.7142 29.6642 21.6716C27.488 20.7562 24.3075 20.6427 23.8192 20.6427C23.331 20.6427 21.8942 20.6924 21.8942 21.111C21.8942 22.6225 22.7172 27.2634 22.8846 27.4337C22.9613 27.5189 23.6588 27.4621 23.7425 27.3699C23.7355 26.9867 23.9518 23.1476 23.7565 22.6793C25.5839 23.3605 27.6554 23.6799 28.2064 23.6799C29.7897 23.687 29.727 22.211 29.727 22.0335Z" fill="white"/>
<path d="M2.88052 22.289C2.88052 22.1045 2.40623 21.5155 2.01564 20.7704C1.29025 20.2169 0.641585 19.8834 0.29284 19.8834C0.0905684 19.8834 -0.00708008 20.2595 -0.00708008 20.4582C-0.00708008 22.5374 2.18304 24.9501 4.09416 25.8513C3.42457 24.9714 2.88052 23.7863 2.88052 22.289Z" fill="#00C9A7"/>
<path d="M27.9065 13.5821C27.9412 13.5821 27.9693 13.5535 27.9693 13.5182C27.9693 13.4829 27.9412 13.4543 27.9065 13.4543C27.8719 13.4543 27.8438 13.4829 27.8438 13.5182C27.8438 13.5535 27.8719 13.5821 27.9065 13.5821Z" fill="white"/>
<path d="M27.0625 13.5182C27.0972 13.5182 27.1253 13.4896 27.1253 13.4544C27.1253 13.4191 27.0972 13.3905 27.0625 13.3905C27.0279 13.3905 26.9998 13.4191 26.9998 13.4544C26.9998 13.4896 27.0279 13.5182 27.0625 13.5182Z" fill="white"/>
<path d="M27.2369 14.2562C27.2369 14.2562 27.4113 14.5472 27.6973 14.3272" stroke="#1E2022" stroke-width="0.463598" stroke-linecap="round" stroke-linejoin="round"/>
</g>
<defs>
<clipPath id="clip0_1_696">
<rect width="35" height="28.5833" fill="white"/>
</clipPath>
</defs>
</svg>
