<svg width="47" height="36" viewBox="0 0 47 36" fill="none" xmlns="http://www.w3.org/2000/svg">
<g clip-path="url(#clip0_1_562)">
<path d="M20.2255 25.5009H16.423L18.8025 10.8742H22.605L20.2255 25.5009ZM13.227 10.8742L9.58786 20.9286L9.16795 18.7591L7.88491 12.2039C7.88491 12.2039 7.72161 10.8975 6.08864 10.8975H0.0699844L0 11.1308C0 11.1308 1.84292 11.504 3.98911 12.8104L7.3017 25.5242H11.2675L17.3328 10.8975L13.227 10.8742ZM43.157 25.5009H46.6562L43.6003 10.8742H40.5443C39.1213 10.8742 38.7947 11.9706 38.7947 11.9706L33.1259 25.5009H37.0917L37.8849 23.3314H42.7138L43.157 25.5009ZM38.9813 20.3221L40.9875 14.8399L42.1073 20.3221H38.9813ZM33.4059 14.3967L33.9424 11.2474C33.9424 11.2474 32.2628 10.6176 30.5132 10.6176C28.6236 10.6176 24.1446 11.434 24.1446 15.4698C24.1446 19.249 29.4168 19.2956 29.4168 21.2785C29.4168 23.2614 24.7045 22.9115 23.1415 21.6518L22.5816 24.941C22.5816 24.941 24.2846 25.7575 26.874 25.7575C29.4634 25.7575 33.3825 24.4045 33.3825 20.742C33.3825 16.9395 28.0637 16.5896 28.0637 14.9333C28.0637 13.277 31.7729 13.4869 33.4059 14.3967Z" fill="#2566AF"/>
<path d="M9.16795 18.7824L7.88491 12.2038C7.88491 12.2038 7.72161 10.8975 6.08864 10.8975H0.0699844L0 11.1307C0 11.1307 2.89269 11.7373 5.64541 13.9768C8.30481 16.0996 9.16795 18.7824 9.16795 18.7824Z" fill="#E6A540"/>
</g>
<defs>
<clipPath id="clip0_1_562">
<rect width="46.6562" height="15.14" fill="white" transform="translate(0 10.6176)"/>
</clipPath>
</defs>
</svg>
