<svg width="101" height="101" viewBox="0 0 101 101" fill="none" xmlns="http://www.w3.org/2000/svg">
<g clip-path="url(#clip0_1_163)">
<path d="M41.0368 20.5654C35.545 18.4245 29.9291 16.5939 24.2356 15.1046C28.5174 17.7885 47.087 29.6253 52.6253 33.7829C54.7197 34.1862 57.0157 35.1015 58.3653 35.9858C59.715 36.8701 58.8618 38.8403 58.2723 40.6554C57.6828 42.4704 56.302 45.1543 55.1696 44.844C54.0371 44.5337 49.6312 43.4633 48.4367 43.3392C47.7386 43.2616 45.908 43.2151 43.8292 43.1686C43.2862 44.3941 42.5261 45.93 41.8435 47.3572L41.9366 47.5434C46.2648 50.6305 48.3281 55.5173 49.4451 60.6678L49.5537 61.1177C49.6468 61.0091 49.7398 60.9005 49.8329 60.8074C50.5776 62.7621 51.3222 64.7323 51.9272 66.7491C52.222 67.7264 52.3616 68.3004 52.284 68.7658L52.4702 68.6883C52.9046 68.5176 53.8819 69.0761 54.2543 69.4329C54.7972 69.9293 55.4798 71.2014 56.1159 72.6597C56.4262 71.4807 57.0157 70.5189 58.2102 69.6036C57.2018 65.6786 63.4072 59.3336 66.6185 57.472C66.6961 57.534 66.7892 57.5961 66.8823 57.6737L66.8978 57.6426C67.8596 53.997 69.7212 50.6616 71.2105 47.1866C72.0638 45.2008 73.2273 43.5099 74.2512 41.6482C74.7321 40.764 74.577 40.3916 74.0495 39.4298C73.46 38.3283 73.0101 37.4596 72.2965 36.4202C71.2571 34.9154 70.2332 33.6898 69.5351 32.6039C68.837 31.5179 71.3346 31.7816 73.9564 32.185C75.8646 32.4798 79.9601 33.4106 83.0163 34.0621C82.0079 32.9452 81.4184 31.5024 81.3253 29.9976C81.2943 29.5787 81.8528 29.4081 82.1165 29.6718C82.9697 30.494 84.0247 30.9594 85.1416 31.3007C84.1798 28.3687 82.0545 25.7314 79.774 23.7146C77.6486 21.8375 75.3371 20.162 73.1032 18.4245L65.8739 12.7931C64.6018 11.8003 63.0659 12.7156 63.2831 14.2979C63.6244 16.7025 63.671 19.1537 63.4538 21.5738C55.1851 14.8099 46.0011 9.28708 36.1655 5.176C34.8469 4.63303 33.792 6.38605 34.4125 7.45648C36.8636 11.6917 39.0666 16.082 41.0368 20.5654Z" fill="#F4F6F9"/>
<path d="M40.7575 84.4809C40.8041 83.7983 41.0833 81.4868 42.0607 81.2386C40.9127 79.8114 40.0904 79.0047 40.2301 76.9569C40.3076 75.9795 40.6334 73.8077 41.7659 73.0785C41.3781 72.7217 41.1298 72.2563 41.0368 71.7444C40.7885 70.5653 40.0594 66.7335 40.0594 66.7335C40.3231 66.7335 40.5869 66.7025 40.8351 66.6404L40.6334 66.5784C40.6644 65.8803 40.2456 65.058 39.9974 64.422C39.1751 64.3754 37.5773 64.0031 36.5223 63.5222C36.3517 64.0652 36.1035 64.5616 35.7777 65.027C35.1416 65.8492 34.1643 65.7406 33.1869 65.5234C31.9148 65.2287 31.7442 64.5616 31.9459 63.3205C32.07 62.5604 32.3647 60.373 32.3647 60.373L32.644 60.3419C30.5652 60.0937 28.5174 58.1545 29.262 55.5793C28.5794 54.8036 28.2536 53.7797 28.719 52.4611C28.657 52.337 28.6105 52.2129 28.5639 52.0888C28.1916 50.9563 28.657 49.4825 29.262 48.8309L29.5878 49.0636C29.293 48.7378 29.0603 48.3345 28.9362 47.9001C28.5329 46.023 29.9756 44.7354 31.6356 44.5337C33.0473 44.3785 34.459 44.4561 35.8397 44.7819L35.7777 44.9836L35.9328 44.9215C36.1655 44.1924 36.3827 43.5253 36.5379 43.0444C36.2276 43.0444 35.9483 43.0289 35.7156 43.0134C33.7299 42.9358 25.4922 43.4633 23.2118 43.5874C19.8608 43.7735 16.6185 44.1148 13.3297 44.6113C13.2676 44.6268 13.2211 44.6268 13.159 44.6423C10.4441 46.7987 8.03956 49.3274 6.00729 52.1353C5.26264 53.1592 6.28653 54.4003 7.34145 54.4623L26.4075 55.7655C21.7225 59.799 17.4718 64.2979 13.7175 69.2001C12.9884 70.162 13.9812 71.5582 15.0517 71.5272C22.7774 71.372 30.4876 70.9066 38.1823 70.131C34.971 74.5523 32.3647 79.408 30.4721 84.543C30.0222 85.753 31.3253 86.6373 32.3802 86.4512C35.1416 85.9547 37.9341 85.4583 40.711 84.8843C40.742 84.7602 40.742 84.6206 40.7575 84.4809Z" fill="#F4F6F9"/>
<path d="M39.8112 61.4434C39.8112 61.4434 39.0666 60.9625 38.7563 60.4661C38.3219 59.768 37.9806 59.194 37.7944 58.3873C37.4997 57.1617 37.6393 54.9123 38.3529 53.8573C36.8481 53.5005 33.3731 52.2594 33.9161 50.2117C34.397 48.3966 37.6238 48.7534 38.989 49.0792C39.625 49.2343 41.0057 49.9014 41.7814 50.8322" stroke="#132144" stroke-width="1.36829" stroke-linecap="round" stroke-linejoin="round"/>
<path d="M35.8553 44.7975C34.4746 44.4717 33.0473 44.3942 31.6511 44.5493C30.0067 44.751 28.5639 46.0386 28.9518 47.9157C29.231 49.2499 31.8838 51.5304 33.854 50.5996" stroke="#132144" stroke-width="1.36829" stroke-linecap="round" stroke-linejoin="round"/>
<path d="M49.4296 60.6678C48.3126 55.5173 46.2493 50.646 41.921 47.5433" stroke="#132144" stroke-width="1.36829" stroke-linecap="round" stroke-linejoin="round"/>
<path d="M29.262 48.8309C28.657 49.498 28.1916 50.9563 28.5639 52.0888C28.8897 53.0971 29.8826 53.8573 30.8134 54.2607C31.9769 54.7726 35.5605 55.3156 35.7777 53.3298" stroke="#132144" stroke-width="1.36829" stroke-linecap="round" stroke-linejoin="round"/>
<path d="M28.719 52.4767C27.7727 55.2071 30.1773 56.6653 32.163 57.2704C33.3731 57.6427 37.236 57.3789 37.7169 55.9362" stroke="#132144" stroke-width="1.36829" stroke-linecap="round" stroke-linejoin="round"/>
<path d="M29.262 55.5793C28.5019 58.2477 30.7358 60.2334 32.8767 60.373C33.8385 60.4351 34.6607 59.7214 34.7228 58.7596C34.7538 58.2477 34.5676 57.7512 34.2108 57.4099" stroke="#132144" stroke-width="1.36829" stroke-linecap="round" stroke-linejoin="round"/>
<path d="M32.3647 46.3954C33.1714 46.5505 34.0557 46.7367 34.7538 47.14C35.4209 47.5279 35.6691 48.3191 35.7777 48.8155" stroke="#132144" stroke-width="1.36829" stroke-linecap="round" stroke-linejoin="round"/>
<path d="M40.6489 66.5628C40.68 65.8647 40.2611 65.0425 40.0129 64.4065C38.958 64.3444 37.3756 64.2203 36.5223 63.5532" stroke="#132144" stroke-width="1.36829" stroke-linecap="round" stroke-linejoin="round"/>
<path d="M38.0582 59.8456C37.9186 60.6678 37.329 61.3969 37.0033 62.1726C36.6309 63.0569 36.3672 64.2514 35.7777 65.0271C35.1416 65.8493 34.1643 65.7407 33.1869 65.5235C31.9148 65.2288 31.7442 64.5617 31.9459 63.3206C32.07 62.5604 32.3647 60.373 32.3647 60.373" stroke="#132144" stroke-width="1.36829" stroke-linecap="round" stroke-linejoin="round"/>
<path d="M35.2037 47.5433C35.5605 46.1005 35.9949 44.6888 36.5068 43.3081" stroke="#132144" stroke-width="1.36829" stroke-linecap="round" stroke-linejoin="round"/>
<path d="M40.742 49.7152C41.6728 47.6053 42.976 45.1852 43.7361 43.3081" stroke="#132144" stroke-width="1.36829" stroke-linecap="round" stroke-linejoin="round"/>
<path d="M52.6254 33.7829C46.9009 29.4857 27.3073 17.0128 23.8633 14.8719C21.5053 13.3982 17.1305 10.885 15.8584 10.2179C14.6793 9.59735 12.2282 9.59735 11.1112 10.1869C8.73767 11.4279 7.03119 13.6309 5.83665 16.051C4.71968 18.2539 3.78887 20.5499 3.04422 22.9079C2.08238 25.9796 1.49287 28.5083 1.24465 31.7661C1.074 34.0777 0.856814 36.3581 1.32222 38.6541C1.74108 40.7329 2.26854 43.0134 3.30795 44.8595C4.25427 46.5195 5.24713 46.4885 6.87605 46.1006C9.04794 45.6042 11.1112 44.9371 13.3452 44.5958C16.6496 44.0994 19.8919 43.7426 23.2273 43.5719C25.5078 43.4478 33.7454 42.9203 35.7312 42.9979C38.2443 43.091 46.7302 43.1686 48.4367 43.3392C49.6313 43.4633 54.0371 44.5338 55.1696 44.844C56.3021 45.1543 57.6828 42.4705 58.2723 40.6554C58.8618 38.8403 59.7305 36.8701 58.3653 35.9858C57.0002 35.1015 54.7197 34.1707 52.6254 33.7829ZM52.6254 33.7829C52.4857 35.9393 51.1516 40.8105 49.6468 43.4943" stroke="#132144" stroke-width="1.36829" stroke-linecap="round" stroke-linejoin="round"/>
<path d="M16.3393 12.8086C17.0529 14.8874 17.7355 18.5486 17.8441 20.736C17.9682 23.2182 17.8131 25.7158 17.3787 28.167C16.8202 31.0835 15.486 34.9464 13.764 38.4834C12.042 42.0205 8.87729 45.5266 7.55864 45.9609" stroke="#132144" stroke-width="1.36829" stroke-linecap="round" stroke-linejoin="round"/>
<path d="M15.998 33.1468C15.998 33.1468 6.45718 29.1133 6.10037 28.2135C5.83664 27.5464 6.41064 24.7229 6.96913 24.2731C7.63621 23.7456 12.0265 24.3661 13.0814 24.5368C13.9347 24.6764 17.751 25.2349 17.751 25.2349" stroke="#132144" stroke-width="1.36829" stroke-linecap="round" stroke-linejoin="round"/>
<path d="M7.29491 24.1334C8.47394 25.2969 7.72929 27.7015 6.10037 28.198" stroke="#132144" stroke-width="1.36829" stroke-linecap="round" stroke-linejoin="round"/>
<path d="M40.0749 66.718C41.921 66.6715 43.7206 65.4614 45.2564 64.4996C46.9319 63.4447 48.5763 62.2967 49.8329 60.8074C50.5776 62.7621 51.3222 64.7323 51.9272 66.749C52.6254 69.0916 52.4702 69.1847 50.3759 70.6584C48.173 72.1633 45.6753 73.1561 43.038 73.5595C43.038 73.5595 41.4401 73.606 41.0678 71.7444C40.8041 70.5498 40.0749 66.718 40.0749 66.718Z" stroke="#132144" stroke-width="1.36829" stroke-linecap="round" stroke-linejoin="round"/>
<path d="M41.7814 73.0786C40.6489 73.8233 40.3231 75.9796 40.2456 76.957C40.0904 79.0048 40.9127 79.8115 42.0762 81.2387C41.0988 81.4869 40.8196 83.7984 40.773 84.481C40.6489 86.2496 40.742 88.0336 41.0833 89.7711C41.3315 91.0122 42.1692 93.4633 43.2862 94.5958" stroke="#132144" stroke-width="1.36829" stroke-linecap="round" stroke-linejoin="round"/>
<path d="M52.4547 68.6882C52.8891 68.5175 53.8664 69.076 54.2387 69.4328C55.6815 70.767 58.0861 77.4688 58.2723 78.834C58.3653 79.5166 58.2723 82.3556 56.9226 80.9904C56.209 80.2768 55.7901 77.8567 55.7901 76.9569C55.8056 73.3888 55.8366 71.4186 58.1947 69.588C57.1863 65.6631 63.3917 59.318 66.603 57.4564C67.3321 57.9684 68.5267 59.0543 69.6592 59.6283C71.3967 60.4971 73.9254 61.009 75.8646 61.1331C78.114 61.2727 82.2872 61.4434 86.3362 60.8849C86.6464 61.8312 86.5844 63.6618 86.9102 64.5926C87.1584 65.3218 89.2062 69.0605 89.8422 70.6894C90.5714 72.5511 94.9927 81.7816 95.4426 82.8675C96.3424 85.0239 97.4128 86.9321 98.4367 88.9954" stroke="#132144" stroke-width="1.36829" stroke-linecap="round" stroke-linejoin="round"/>
<path d="M70.2177 67.9126C69.4575 70.5499 69.442 74.7541 67.3166 76.9259C66.4944 77.7637 65.5326 77.8568 65.6567 79.4081C65.7653 80.8198 66.1531 83.4881 64.4156 84.3414" stroke="#132144" stroke-width="1.36829" stroke-linecap="round" stroke-linejoin="round"/>
<path d="M72.0793 81.9833C73.6306 81.9833 75.182 82.0919 76.7488 82.0919C77.6486 82.0919 82.2872 81.9833 82.2872 81.9833" stroke="#132144" stroke-width="1.36829" stroke-linecap="round" stroke-linejoin="round"/>
<path d="M79.836 80.7422V83.3174" stroke="#132144" stroke-width="1.36829" stroke-linecap="round" stroke-linejoin="round"/>
<path d="M77.9744 80.432C78.3778 82.1695 78.1606 83.9536 77.9744 85.7066" stroke="#132144" stroke-width="1.36829" stroke-linecap="round" stroke-linejoin="round"/>
<path d="M65.7808 59.9541C65.3774 61.3348 63.4848 64.9339 64.4621 66.2681C65.7498 68.0366 69.9539 63.0258 71.2571 62.6535C71.3036 64.8253 72.0638 68.0677 74.5459 68.4865C76.0818 68.7503 77.8348 68.0521 79.2 67.4006C80.5341 66.7335 81.8062 65.9733 83.0318 65.1356" stroke="#132144" stroke-width="1.36829" stroke-linecap="round" stroke-linejoin="round"/>
<path d="M66.8823 57.6426C67.8441 53.9969 69.7057 50.6615 71.195 47.1865C72.0483 45.2008 73.2118 43.5098 74.2357 41.6482C74.7166 40.7639 74.5614 40.3916 74.034 39.4297C73.4445 38.3283 72.9946 37.4595 72.281 36.4201C71.2416 34.9153 70.2177 33.6898 69.5196 32.6038C68.8214 31.5179 71.3191 31.7816 73.9409 32.1849C76.5627 32.5883 83.2955 34.1862 85.8397 34.6361C88.1823 35.0549 91.1764 36.0323 92.6657 38.0025C93.7827 39.4918 93.4569 42.0826 92.6657 43.696C94.8996 44.0373 101.027 44.0217 99.7864 47.6984C98.7625 50.7236 93.55 49.2963 91.3315 48.6913C90.1525 50.615 89.1752 52.8955 88.1978 54.9743C87.3601 56.7583 86.3207 59.2095 85.8708 60.947" stroke="#132144" stroke-width="1.36829" stroke-linecap="round" stroke-linejoin="round"/>
<path d="M78.6105 44.2855C79.2 45.1698 78.9207 46.504 78.5484 47.3727C78.2071 48.1639 77.3539 49.7618 76.3145 49.7463C75.213 49.7308 75.3371 48.1639 75.4767 47.3262C75.6474 46.3799 75.9887 45.5421 76.5782 44.5958C77.1677 43.6495 78.1606 43.6185 78.6105 44.2855Z" stroke="#132144" stroke-width="1.36829" stroke-linecap="round" stroke-linejoin="round"/>
<path d="M79.3241 37.7854L80.0532 39.1971" stroke="#132144" stroke-width="1.36829" stroke-linecap="round" stroke-linejoin="round"/>
<path d="M83.3421 41.1052L85.2657 40.9966" stroke="#132144" stroke-width="1.36829" stroke-linecap="round" stroke-linejoin="round"/>
<path d="M94.729 46.7056C95.5202 46.6745 96.1097 46.8917 96.9009 46.8607" stroke="#132144" stroke-width="1.36829" stroke-linecap="round" stroke-linejoin="round"/>
<path d="M94.9772 37.9095C95.5047 37.0717 95.6443 36.0478 95.3495 35.1015C94.9151 33.7053 93.6741 33.0072 92.3089 32.759C91.4556 32.6038 90.5714 32.5573 89.7181 32.4022C88.7718 32.2315 87.8565 31.9988 86.9257 31.7661C85.2192 31.3317 83.4352 30.9129 82.132 29.6563C81.8528 29.3926 81.3098 29.5632 81.3408 29.9821C81.7287 35.6445 87.8565 37.1183 92.2934 38.8713C91.7969 39.2902 91.4401 39.8642 91.2695 40.4847C90.8351 41.943 91.4091 43.4788 91.0678 44.9526C90.9902 45.3249 91.3936 45.7128 91.7504 45.48C92.5261 44.9836 93.2552 44.4406 93.9533 43.8201C94.9307 43.9132 95.8925 44.0528 96.8388 44.239C97.3663 42.0981 96.9474 39.135 94.9772 37.9095Z" fill="#132144"/>
<path d="M89.9508 51.282C90.0594 51.4992 90.3076 51.6078 90.5403 51.4992C90.6489 51.5147 90.742 51.4837 90.8196 51.4062C91.7194 50.7236 92.6657 50.0099 93.5189 49.2188C92.6812 49.0481 91.9055 48.8309 91.3315 48.6758C90.8506 49.5135 90.3852 50.3823 89.9508 51.282Z" fill="#132144"/>
</g>
<defs>
<clipPath id="clip0_1_163">
<rect width="100" height="90.0714" fill="white" transform="translate(0.5 5.06738)"/>
</clipPath>
</defs>
</svg>
